<mxfile host="app.diagrams.net" agent="Mozilla/5.0 (Windows NT 10.0; Win64; x64) AppleWebKit/537.36 (KHTML, like Gecko) Chrome/129.0.0.0 Safari/537.36" version="24.8.0">
  <diagram name="Página-1" id="Gme2ezivlOO41GYzCbgk">
    <mxGraphModel dx="1097" dy="572" grid="1" gridSize="10" guides="1" tooltips="1" connect="1" arrows="1" fold="1" page="1" pageScale="1" pageWidth="827" pageHeight="1169" math="0" shadow="0">
      <root>
        <mxCell id="0" />
        <mxCell id="1" parent="0" />
        <mxCell id="d08CNCCLS0JBoGyESgGS-4" value="Amigo Pet - BPMN" style="swimlane;horizontal=0;whiteSpace=wrap;html=1;" vertex="1" parent="1">
          <mxGeometry x="120" y="40" width="20" height="490" as="geometry" />
        </mxCell>
        <mxCell id="d08CNCCLS0JBoGyESgGS-5" value="&lt;blockquote style=&quot;margin: 0 0 0 40px; border: none; padding: 0px;&quot;&gt;Cliente&amp;nbsp; &amp;nbsp; &amp;nbsp; &amp;nbsp; &amp;nbsp; &amp;nbsp; &amp;nbsp; &amp;nbsp; &amp;nbsp; &amp;nbsp; &amp;nbsp; &amp;nbsp; &amp;nbsp; &amp;nbsp; &amp;nbsp; &amp;nbsp; &amp;nbsp; &amp;nbsp; &amp;nbsp; &amp;nbsp; &amp;nbsp; &amp;nbsp; Funcionário&lt;/blockquote&gt;" style="swimlane;horizontal=0;whiteSpace=wrap;html=1;" vertex="1" parent="1">
          <mxGeometry x="150" y="40" width="830" height="490" as="geometry" />
        </mxCell>
        <mxCell id="d08CNCCLS0JBoGyESgGS-16" style="edgeStyle=orthogonalEdgeStyle;rounded=0;orthogonalLoop=1;jettySize=auto;html=1;exitX=1;exitY=0.5;exitDx=0;exitDy=0;entryX=0;entryY=0.5;entryDx=0;entryDy=0;" edge="1" parent="d08CNCCLS0JBoGyESgGS-5" source="d08CNCCLS0JBoGyESgGS-7" target="d08CNCCLS0JBoGyESgGS-9">
          <mxGeometry relative="1" as="geometry" />
        </mxCell>
        <mxCell id="d08CNCCLS0JBoGyESgGS-7" value="Inicio" style="ellipse;whiteSpace=wrap;html=1;aspect=fixed;" vertex="1" parent="d08CNCCLS0JBoGyESgGS-5">
          <mxGeometry x="30" y="307.5" width="50" height="50" as="geometry" />
        </mxCell>
        <mxCell id="d08CNCCLS0JBoGyESgGS-19" style="edgeStyle=orthogonalEdgeStyle;rounded=0;orthogonalLoop=1;jettySize=auto;html=1;exitX=1;exitY=0.5;exitDx=0;exitDy=0;entryX=0;entryY=0.5;entryDx=0;entryDy=0;" edge="1" parent="d08CNCCLS0JBoGyESgGS-5" source="d08CNCCLS0JBoGyESgGS-9" target="d08CNCCLS0JBoGyESgGS-10">
          <mxGeometry relative="1" as="geometry" />
        </mxCell>
        <mxCell id="d08CNCCLS0JBoGyESgGS-9" value="Solicita o serviço" style="rounded=0;whiteSpace=wrap;html=1;" vertex="1" parent="d08CNCCLS0JBoGyESgGS-5">
          <mxGeometry x="130" y="305" width="80" height="55" as="geometry" />
        </mxCell>
        <mxCell id="d08CNCCLS0JBoGyESgGS-21" style="edgeStyle=orthogonalEdgeStyle;rounded=0;orthogonalLoop=1;jettySize=auto;html=1;exitX=1;exitY=0.5;exitDx=0;exitDy=0;entryX=0;entryY=0.5;entryDx=0;entryDy=0;" edge="1" parent="d08CNCCLS0JBoGyESgGS-5" source="d08CNCCLS0JBoGyESgGS-10" target="d08CNCCLS0JBoGyESgGS-11">
          <mxGeometry relative="1" as="geometry" />
        </mxCell>
        <mxCell id="d08CNCCLS0JBoGyESgGS-10" value="Identifica o pet" style="rounded=0;whiteSpace=wrap;html=1;" vertex="1" parent="d08CNCCLS0JBoGyESgGS-5">
          <mxGeometry x="250" y="305" width="80" height="55" as="geometry" />
        </mxCell>
        <mxCell id="d08CNCCLS0JBoGyESgGS-22" style="edgeStyle=orthogonalEdgeStyle;rounded=0;orthogonalLoop=1;jettySize=auto;html=1;exitX=1;exitY=0.5;exitDx=0;exitDy=0;entryX=0;entryY=0.5;entryDx=0;entryDy=0;" edge="1" parent="d08CNCCLS0JBoGyESgGS-5" source="d08CNCCLS0JBoGyESgGS-11" target="d08CNCCLS0JBoGyESgGS-15">
          <mxGeometry relative="1" as="geometry">
            <mxPoint x="490" y="332.5" as="targetPoint" />
          </mxGeometry>
        </mxCell>
        <mxCell id="d08CNCCLS0JBoGyESgGS-51" style="edgeStyle=orthogonalEdgeStyle;rounded=0;orthogonalLoop=1;jettySize=auto;html=1;exitX=0.5;exitY=0;exitDx=0;exitDy=0;entryX=0.5;entryY=1;entryDx=0;entryDy=0;" edge="1" parent="d08CNCCLS0JBoGyESgGS-5" source="d08CNCCLS0JBoGyESgGS-11" target="d08CNCCLS0JBoGyESgGS-29">
          <mxGeometry relative="1" as="geometry" />
        </mxCell>
        <mxCell id="d08CNCCLS0JBoGyESgGS-11" value="Escolhe o tipo de serviço" style="rounded=0;whiteSpace=wrap;html=1;" vertex="1" parent="d08CNCCLS0JBoGyESgGS-5">
          <mxGeometry x="370" y="305" width="80" height="55" as="geometry" />
        </mxCell>
        <mxCell id="d08CNCCLS0JBoGyESgGS-23" style="edgeStyle=orthogonalEdgeStyle;rounded=0;orthogonalLoop=1;jettySize=auto;html=1;exitX=0.5;exitY=1;exitDx=0;exitDy=0;entryX=0.5;entryY=0;entryDx=0;entryDy=0;" edge="1" parent="d08CNCCLS0JBoGyESgGS-5" source="d08CNCCLS0JBoGyESgGS-12">
          <mxGeometry relative="1" as="geometry">
            <mxPoint x="515" y="400" as="targetPoint" />
          </mxGeometry>
        </mxCell>
        <mxCell id="d08CNCCLS0JBoGyESgGS-26" value="Sim" style="edgeLabel;html=1;align=center;verticalAlign=middle;resizable=0;points=[];" vertex="1" connectable="0" parent="d08CNCCLS0JBoGyESgGS-23">
          <mxGeometry x="-0.4103" relative="1" as="geometry">
            <mxPoint as="offset" />
          </mxGeometry>
        </mxCell>
        <mxCell id="d08CNCCLS0JBoGyESgGS-15" value="Realiza o pagemento" style="rounded=0;whiteSpace=wrap;html=1;" vertex="1" parent="d08CNCCLS0JBoGyESgGS-5">
          <mxGeometry x="530" y="305" width="80" height="55" as="geometry" />
        </mxCell>
        <mxCell id="d08CNCCLS0JBoGyESgGS-28" value="Fim" style="ellipse;whiteSpace=wrap;html=1;aspect=fixed;" vertex="1" parent="d08CNCCLS0JBoGyESgGS-5">
          <mxGeometry x="760" y="180" width="50" height="50" as="geometry" />
        </mxCell>
        <mxCell id="d08CNCCLS0JBoGyESgGS-52" style="edgeStyle=orthogonalEdgeStyle;rounded=0;orthogonalLoop=1;jettySize=auto;html=1;exitX=1;exitY=0.5;exitDx=0;exitDy=0;entryX=0;entryY=0.5;entryDx=0;entryDy=0;" edge="1" parent="d08CNCCLS0JBoGyESgGS-5" source="d08CNCCLS0JBoGyESgGS-29" target="d08CNCCLS0JBoGyESgGS-49">
          <mxGeometry relative="1" as="geometry" />
        </mxCell>
        <mxCell id="d08CNCCLS0JBoGyESgGS-29" value="Realiza o agendamento" style="rounded=0;whiteSpace=wrap;html=1;" vertex="1" parent="d08CNCCLS0JBoGyESgGS-5">
          <mxGeometry x="370" y="90" width="80" height="55" as="geometry" />
        </mxCell>
        <mxCell id="d08CNCCLS0JBoGyESgGS-53" style="edgeStyle=orthogonalEdgeStyle;rounded=0;orthogonalLoop=1;jettySize=auto;html=1;exitX=1;exitY=0.5;exitDx=0;exitDy=0;entryX=0;entryY=0.5;entryDx=0;entryDy=0;" edge="1" parent="d08CNCCLS0JBoGyESgGS-5" source="d08CNCCLS0JBoGyESgGS-49" target="d08CNCCLS0JBoGyESgGS-50">
          <mxGeometry relative="1" as="geometry" />
        </mxCell>
        <mxCell id="d08CNCCLS0JBoGyESgGS-49" value="Realiza o atendimento" style="rounded=0;whiteSpace=wrap;html=1;" vertex="1" parent="d08CNCCLS0JBoGyESgGS-5">
          <mxGeometry x="490" y="90" width="80" height="55" as="geometry" />
        </mxCell>
        <mxCell id="d08CNCCLS0JBoGyESgGS-54" style="edgeStyle=orthogonalEdgeStyle;rounded=0;orthogonalLoop=1;jettySize=auto;html=1;exitX=1;exitY=0.5;exitDx=0;exitDy=0;entryX=0.5;entryY=0;entryDx=0;entryDy=0;" edge="1" parent="d08CNCCLS0JBoGyESgGS-5" source="d08CNCCLS0JBoGyESgGS-50" target="d08CNCCLS0JBoGyESgGS-28">
          <mxGeometry relative="1" as="geometry" />
        </mxCell>
        <mxCell id="d08CNCCLS0JBoGyESgGS-50" value="Atualiza a ficha do atendimento" style="rounded=0;whiteSpace=wrap;html=1;" vertex="1" parent="d08CNCCLS0JBoGyESgGS-5">
          <mxGeometry x="610" y="90" width="80" height="55" as="geometry" />
        </mxCell>
        <mxCell id="d08CNCCLS0JBoGyESgGS-6" value="" style="endArrow=none;html=1;rounded=0;entryX=1;entryY=0.5;entryDx=0;entryDy=0;" edge="1" parent="1" target="d08CNCCLS0JBoGyESgGS-5">
          <mxGeometry width="50" height="50" relative="1" as="geometry">
            <mxPoint x="164" y="285" as="sourcePoint" />
            <mxPoint x="880" y="280" as="targetPoint" />
          </mxGeometry>
        </mxCell>
      </root>
    </mxGraphModel>
  </diagram>
</mxfile>
